<svg width="65" height="21" viewBox="0 0 65 21" fill="none" xmlns="http://www.w3.org/2000/svg">
<path d="M46.0001 9.99999C46.0001 14.9705 41.9707 19 37.0001 19C32.0295 19 28 14.9705 28 9.99999C28 5.02944 32.0295 1 37.0001 1C41.9707 1 46.0001 5.02944 46.0001 9.99999Z" stroke="white" stroke-width="2"/>
<rect x="31.8" y="9.20007" width="10.4001" height="1.6" rx="0.799999" fill="white"/>
<path d="M46.0001 9.99999C46.0001 14.9705 41.9707 19 37.0001 19C32.0295 19 28 14.9705 28 9.99999C28 5.02944 32.0295 1 37.0001 1C41.9707 1 46.0001 5.02944 46.0001 9.99999Z" stroke="white" stroke-width="2"/>
<rect x="31.8" y="9.20007" width="10.4001" height="1.6" rx="0.799999" fill="white"/>
</svg>
