<svg width="20" height="20" viewBox="0 0 20 20" fill="none" xmlns="http://www.w3.org/2000/svg">
<path d="M19.0001 9.99999C19.0001 14.9705 14.9707 19 10.0001 19C5.02946 19 1 14.9705 1 9.99999C1 5.02944 5.02946 1 10.0001 1C14.9707 1 19.0001 5.02944 19.0001 9.99999Z" stroke="white" stroke-width="2"/>
<rect x="4.80005" y="9.20007" width="10.4001" height="1.6" rx="0.799999" fill="white"/>
<rect x="10.8" y="4.80005" width="10.4" height="1.60001" rx="0.800005" transform="rotate(90 10.8 4.80005)" fill="white"/>
<path d="M19.0001 9.99999C19.0001 14.9705 14.9707 19 10.0001 19C5.02946 19 1 14.9705 1 9.99999C1 5.02944 5.02946 1 10.0001 1C14.9707 1 19.0001 5.02944 19.0001 9.99999Z" stroke="white" stroke-width="2"/>
<rect x="4.80005" y="9.20007" width="10.4001" height="1.6" rx="0.799999" fill="white"/>
<rect x="10.8" y="4.80005" width="10.4" height="1.60001" rx="0.800005" transform="rotate(90 10.8 4.80005)" fill="white"/>
</svg>
