<svg width="42" height="37" viewBox="0 0 42 37" fill="none" xmlns="http://www.w3.org/2000/svg">
<path d="M18.3596 1.89484C19.493 -0.206152 22.507 -0.20615 23.6404 1.89484L27.7469 9.50773C28.2116 10.3693 29.0675 10.9499 30.0398 11.0633L38.8205 12.0872C41.4335 12.3919 42.4169 15.6727 40.4023 17.3644L34.4915 22.328C33.6448 23.0389 33.2578 24.1579 33.4843 25.24L35.0369 32.6571C35.5463 35.0909 33.0437 37.0524 30.8021 35.9762L22.2985 31.8934C21.4777 31.4993 20.5223 31.4993 19.7015 31.8934L11.1979 35.9762C8.9563 37.0524 6.45366 35.0909 6.96312 32.6571L8.51567 25.24C8.74218 24.1579 8.35518 23.0389 7.50855 22.328L1.59773 17.3644C-0.416851 15.6727 0.566505 12.3919 3.17949 12.0872L11.9602 11.0633C12.9325 10.9499 13.7884 10.3693 14.2531 9.50773L18.3596 1.89484Z" fill="#FFD644"/>
</svg>
