<svg width="22" height="22" viewBox="0 0 22 22" fill="none" xmlns="http://www.w3.org/2000/svg">
<path d="M7.78283 3.05576C8.66579 0.260647 12.6212 0.260649 13.5042 3.05576L13.9103 4.34136C14.3045 5.58931 15.4622 6.43769 16.7709 6.43769H18.261C21.1466 6.43769 22.3683 10.1134 20.0568 11.8408L18.7073 12.8493C17.6853 13.613 17.2582 14.9395 17.6425 16.1561L18.1234 17.6785C19.0012 20.4574 15.8013 22.7298 13.4669 20.9853L12.4393 20.2174C11.3744 19.4216 9.91261 19.4216 8.84764 20.2174L7.82009 20.9853C5.48568 22.7298 2.28575 20.4574 3.16357 17.6785L3.64451 16.1561C4.02881 14.9395 3.60166 13.613 2.5797 12.8493L1.23017 11.8408C-1.08135 10.1134 0.140348 6.43769 3.02601 6.43769H4.51605C5.82479 6.43769 6.98249 5.58931 7.37671 4.34136L7.78283 3.05576Z" fill="#FFD644"/>
</svg>
