<svg width="72" height="69" viewBox="0 0 72 69" fill="none" xmlns="http://www.w3.org/2000/svg">
<path d="M34.2864 1.84745C35.0637 0.555806 36.9363 0.555802 37.7136 1.84744L48.4003 19.6051C48.6796 20.0691 49.1351 20.4001 49.6627 20.5222L69.8536 25.1985C71.3222 25.5386 71.9009 27.3196 70.9127 28.458L57.3265 44.1091C56.9715 44.5181 56.7975 45.0535 56.8443 45.5931L58.6363 66.2408C58.7666 67.7427 57.2517 68.8433 55.8636 68.2553L36.7802 60.1705C36.2815 59.9593 35.7185 59.9593 35.2198 60.1705L16.1364 68.2553C14.7483 68.8433 13.2334 67.7427 13.3637 66.2408L15.1557 45.5931C15.2025 45.0535 15.0285 44.5181 14.6735 44.1091L1.08734 28.458C0.0991216 27.3196 0.677782 25.5386 2.14641 25.1985L22.3373 20.5222C22.8649 20.4001 23.3204 20.0691 23.5997 19.6051L34.2864 1.84745Z" fill="#37B5FF"/>
</svg>
